<svg xmlns="http://www.w3.org/2000/svg" width="1080" height="916" viewBox="0 0 1080 916"><defs><marker id="arrow" viewBox="0 0 10 10" refX="9" refY="5" markerWidth="6.5" markerHeight="6.5" orient="auto"><path d="M0 0 L10 5 L0 10 z" fill="#16213E"/></marker><marker id="arrow-s" viewBox="0 0 10 10" refX="9" refY="5" markerWidth="6.5" markerHeight="6.5" orient="auto-start-reverse"><path d="M0 0 L10 5 L0 10 z" fill="#16213E"/></marker><marker id="open" viewBox="0 0 10 10" refX="9" refY="5" markerWidth="8" markerHeight="8" orient="auto"><path d="M0 0 L10 5 L0 10" fill="none" stroke="#16213E" stroke-width="1.6"/></marker><marker id="hollow" viewBox="0 0 12 12" refX="11" refY="6" markerWidth="9" markerHeight="9" orient="auto"><path d="M1 1 L11 6 L1 11 z" fill="#FFFFFF" stroke="#16213E" stroke-width="1.3"/></marker></defs><rect width="1080" height="916" fill="#FFFFFF"/><rect x="250" y="60" width="580" height="790" rx="6" fill="#FBFCFE" stroke="#1F3864" stroke-width="2"/><text x="540" y="86" text-anchor="middle" fill="#1F3864" style="font-family:Helvetica, Arial, 'DejaVu Sans', sans-serif;font-size:14px;font-weight:700">TalentHub</text><path d="M126 298 L186 298 L186 125 L290 125" fill="none" stroke="#1F3864" stroke-width="1.2"/><path d="M126 298 L186 298 L186 181 L290 181" fill="none" stroke="#1F3864" stroke-width="1.2"/><line x1="126" y1="298" x2="290" y2="237" stroke="#1F3864" stroke-width="1.2"/><line x1="126" y1="298" x2="290" y2="293" stroke="#1F3864" stroke-width="1.2"/><line x1="126" y1="298" x2="290" y2="349" stroke="#1F3864" stroke-width="1.2"/><path d="M126 298 L186 298 L186 629 L290 629" fill="none" stroke="#1F3864" stroke-width="1.2"/><path d="M126 298 L186 298 L186 685 L290 685" fill="none" stroke="#1F3864" stroke-width="1.2"/><path d="M126 466 L214 466 L214 135 L290 135" fill="none" stroke="#5B6472" stroke-width="1.2"/><path d="M126 466 L214 466 L214 191 L290 191" fill="none" stroke="#5B6472" stroke-width="1.2"/><line x1="126" y1="466" x2="290" y2="415" stroke="#5B6472" stroke-width="1.2"/><line x1="126" y1="466" x2="290" y2="471" stroke="#5B6472" stroke-width="1.2"/><line x1="126" y1="466" x2="290" y2="527" stroke="#5B6472" stroke-width="1.2"/><line x1="126" y1="466" x2="290" y2="583" stroke="#5B6472" stroke-width="1.2"/><path d="M126 466 L214 466 L214 639 L290 639" fill="none" stroke="#5B6472" stroke-width="1.2"/><path d="M126 466 L214 466 L214 695 L290 695" fill="none" stroke="#5B6472" stroke-width="1.2"/><line x1="934" y1="768" x2="790" y2="746" stroke="#1F3864" stroke-width="1.2"/><line x1="934" y1="768" x2="790" y2="802" stroke="#1F3864" stroke-width="1.2"/><path d="M934 768 L845 768 L845 192 L790 192" fill="none" stroke="#1F3864" stroke-width="1.2"/><path d="M292 620 L266 620 L266 592 L292 592" fill="none" stroke="#5B6472" stroke-width="1.2" stroke-dasharray="5 3" marker-end="url(#open)"/><rect x="242.48" y="598.21" width="47.040000000000006" height="13.5" fill="#FFFFFF" opacity="0.94" rx="2"/><text x="266" y="608.85" text-anchor="middle" fill="#5B6472" style="font-family:Helvetica, Arial, 'DejaVu Sans', sans-serif;font-size:9.5px;font-weight:normal">«extend»</text><path d="M788 732 L812 732 L812 592 L788 592" fill="none" stroke="#9B2226" stroke-width="1.2" stroke-dasharray="5 3" marker-end="url(#open)"/><rect x="788.48" y="654.21" width="47.040000000000006" height="13.5" fill="#FFFFFF" opacity="0.94" rx="2"/><text x="812" y="664.85" text-anchor="middle" fill="#9B2226" style="font-family:Helvetica, Arial, 'DejaVu Sans', sans-serif;font-size:9.5px;font-weight:normal">«extend»</text><rect x="860" y="470" width="180" height="70" rx="4" fill="#FDF0DC" stroke="#9A5B06" stroke-width="1.6"/><text x="950.0" y="499.93" text-anchor="middle" fill="#9A5B06" style="font-family:Helvetica, Arial, 'DejaVu Sans', sans-serif;font-size:11.5px;font-weight:600">Payment Service</text><text x="950.0" y="514.4300000000001" text-anchor="middle" fill="#9A5B06" style="font-family:Helvetica, Arial, 'DejaVu Sans', sans-serif;font-size:11.5px;font-weight:600">Provider</text><line x1="858" y1="505" x2="790" y2="522" stroke="#9A5B06" stroke-width="1.4" stroke-dasharray="5 3"/><line x1="858" y1="505" x2="790" y2="578" stroke="#9A5B06" stroke-width="1.4" stroke-dasharray="5 3"/><ellipse cx="540" cy="130" rx="248" ry="26" fill="#FFFFFF" stroke="#1F3864" stroke-width="1.5"/><text x="540" y="134.025" text-anchor="middle" fill="#1F3864" style="font-family:Helvetica, Arial, 'DejaVu Sans', sans-serif;font-size:11.5px;font-weight:normal">UC-01 Register and verify account</text><ellipse cx="540" cy="186" rx="248" ry="26" fill="#FFFFFF" stroke="#1F3864" stroke-width="1.5"/><text x="540" y="190.025" text-anchor="middle" fill="#1F3864" style="font-family:Helvetica, Arial, 'DejaVu Sans', sans-serif;font-size:11.5px;font-weight:normal">UC-02 Authenticate</text><ellipse cx="540" cy="242" rx="248" ry="26" fill="#FFFFFF" stroke="#1F3864" stroke-width="1.5"/><text x="540" y="246.025" text-anchor="middle" fill="#1F3864" style="font-family:Helvetica, Arial, 'DejaVu Sans', sans-serif;font-size:11.5px;font-weight:normal">UC-03 Manage verified profile</text><ellipse cx="540" cy="298" rx="248" ry="26" fill="#FFFFFF" stroke="#1F3864" stroke-width="1.5"/><text x="540" y="302.025" text-anchor="middle" fill="#1F3864" style="font-family:Helvetica, Arial, 'DejaVu Sans', sans-serif;font-size:11.5px;font-weight:normal">UC-06 Apply to brief</text><ellipse cx="540" cy="354" rx="248" ry="26" fill="#FFFFFF" stroke="#1F3864" stroke-width="1.5"/><text x="540" y="358.025" text-anchor="middle" fill="#1F3864" style="font-family:Helvetica, Arial, 'DejaVu Sans', sans-serif;font-size:11.5px;font-weight:normal">UC-08 Submit deliverable</text><ellipse cx="540" cy="410" rx="248" ry="26" fill="#FFFFFF" stroke="#1F3864" stroke-width="1.5"/><text x="540" y="414.025" text-anchor="middle" fill="#1F3864" style="font-family:Helvetica, Arial, 'DejaVu Sans', sans-serif;font-size:11.5px;font-weight:normal">UC-04 Search and filter creators</text><ellipse cx="540" cy="466" rx="248" ry="26" fill="#FFFFFF" stroke="#1F3864" stroke-width="1.5"/><text x="540" y="470.025" text-anchor="middle" fill="#1F3864" style="font-family:Helvetica, Arial, 'DejaVu Sans', sans-serif;font-size:11.5px;font-weight:normal">UC-05 Publish brief</text><ellipse cx="540" cy="522" rx="248" ry="26" fill="#FDF0DC" stroke="#9A5B06" stroke-width="1.5"/><text x="540" y="526.025" text-anchor="middle" fill="#9A5B06" style="font-family:Helvetica, Arial, 'DejaVu Sans', sans-serif;font-size:11.5px;font-weight:normal">UC-07 Fund milestone into escrow</text><ellipse cx="540" cy="578" rx="248" ry="26" fill="#FDF0DC" stroke="#9A5B06" stroke-width="1.5"/><text x="540" y="582.025" text-anchor="middle" fill="#9A5B06" style="font-family:Helvetica, Arial, 'DejaVu Sans', sans-serif;font-size:11.5px;font-weight:normal">UC-09 Accept deliverable and release payment</text><ellipse cx="540" cy="634" rx="248" ry="26" fill="#FFFFFF" stroke="#1F3864" stroke-width="1.5"/><text x="540" y="638.025" text-anchor="middle" fill="#1F3864" style="font-family:Helvetica, Arial, 'DejaVu Sans', sans-serif;font-size:11.5px;font-weight:normal">UC-10 Rate and review counterparty</text><ellipse cx="540" cy="690" rx="248" ry="26" fill="#FFFFFF" stroke="#1F3864" stroke-width="1.5"/><text x="540" y="694.025" text-anchor="middle" fill="#1F3864" style="font-family:Helvetica, Arial, 'DejaVu Sans', sans-serif;font-size:11.5px;font-weight:normal">UC-11 Exchange messages</text><ellipse cx="540" cy="746" rx="248" ry="26" fill="#FFFFFF" stroke="#1F3864" stroke-width="1.5"/><text x="540" y="750.025" text-anchor="middle" fill="#1F3864" style="font-family:Helvetica, Arial, 'DejaVu Sans', sans-serif;font-size:11.5px;font-weight:normal">UC-12 Adjudicate dispute</text><ellipse cx="540" cy="802" rx="248" ry="26" fill="#FFFFFF" stroke="#1F3864" stroke-width="1.5"/><text x="540" y="806.025" text-anchor="middle" fill="#1F3864" style="font-family:Helvetica, Arial, 'DejaVu Sans', sans-serif;font-size:11.5px;font-weight:normal">UC-13 Moderate platform</text><circle cx="100" cy="260.8" r="10.799999999999999" fill="#FFFFFF" stroke="#1F3864" stroke-width="1.7"/><path d="M100 271.6 L100 300.40000000000003 M83.2 281.20000000000005 L116.8 281.20000000000005 M100 300.40000000000003 L85.6 322.0 M100 300.40000000000003 L114.4 322.0" fill="none" stroke="#1F3864" stroke-width="1.7" stroke-linecap="round"/><text x="100" y="337.0" text-anchor="middle" fill="#1F3864" style="font-family:Helvetica, Arial, 'DejaVu Sans', sans-serif;font-size:12.5px;font-weight:600">Creator</text><circle cx="100" cy="428.8" r="10.799999999999999" fill="#FFFFFF" stroke="#1F3864" stroke-width="1.7"/><path d="M100 439.6 L100 468.40000000000003 M83.2 449.20000000000005 L116.8 449.20000000000005 M100 468.40000000000003 L85.6 490.0 M100 468.40000000000003 L114.4 490.0" fill="none" stroke="#1F3864" stroke-width="1.7" stroke-linecap="round"/><text x="100" y="505.0" text-anchor="middle" fill="#1F3864" style="font-family:Helvetica, Arial, 'DejaVu Sans', sans-serif;font-size:12.5px;font-weight:600">Brand</text><circle cx="960" cy="730.8" r="10.799999999999999" fill="#FFFFFF" stroke="#1F3864" stroke-width="1.7"/><path d="M960 741.6 L960 770.4 M943.2 751.2 L976.8 751.2 M960 770.4 L945.6 792.0 M960 770.4 L974.4 792.0" fill="none" stroke="#1F3864" stroke-width="1.7" stroke-linecap="round"/><text x="960" y="807.0" text-anchor="middle" fill="#1F3864" style="font-family:Helvetica, Arial, 'DejaVu Sans', sans-serif;font-size:12.5px;font-weight:600">Administrator</text><text x="40" y="880" text-anchor="start" fill="#16213E" style="font-family:Helvetica, Arial, 'DejaVu Sans', sans-serif;font-size:12px;font-weight:600">Figure 2.2 — Use case diagram</text><text x="40" y="900" text-anchor="start" fill="#5B6472" style="font-family:Helvetica, Arial, 'DejaVu Sans', sans-serif;font-size:11px;font-weight:normal">Use cases are grouped by owning actor. UC-07 and UC-09 carry the transaction and are specified in full in §2.7; UC-10 and UC-12 extend it.</text></svg>