<svg xmlns="http://www.w3.org/2000/svg" width="940" height="486" viewBox="0 0 940 486"><defs><marker id="arrow" viewBox="0 0 10 10" refX="9" refY="5" markerWidth="6.5" markerHeight="6.5" orient="auto"><path d="M0 0 L10 5 L0 10 z" fill="#16213E"/></marker><marker id="arrow-s" viewBox="0 0 10 10" refX="9" refY="5" markerWidth="6.5" markerHeight="6.5" orient="auto-start-reverse"><path d="M0 0 L10 5 L0 10 z" fill="#16213E"/></marker><marker id="open" viewBox="0 0 10 10" refX="9" refY="5" markerWidth="8" markerHeight="8" orient="auto"><path d="M0 0 L10 5 L0 10" fill="none" stroke="#16213E" stroke-width="1.6"/></marker><marker id="hollow" viewBox="0 0 12 12" refX="11" refY="6" markerWidth="9" markerHeight="9" orient="auto"><path d="M1 1 L11 6 L1 11 z" fill="#FFFFFF" stroke="#16213E" stroke-width="1.3"/></marker></defs><rect width="940" height="486" fill="#FFFFFF"/><text x="470" y="34" text-anchor="middle" fill="#16213E" style="font-family:Helvetica, Arial, 'DejaVu Sans', sans-serif;font-size:13px;font-weight:700">Each increment runs its own requirements, design, build and test cycle</text><text x="470" y="54" text-anchor="middle" fill="#5B6472" style="font-family:Helvetica, Arial, 'DejaVu Sans', sans-serif;font-size:11.5px;font-weight:normal">and ends in a working, demonstrable slice of the platform</text><rect x="62" y="96" width="128" height="44" rx="4" fill="#1F3864" stroke="#1F3864" stroke-width="1.6"/><text x="126.0" y="116" text-anchor="middle" fill="#FFFFFF" style="font-family:Helvetica, Arial, 'DejaVu Sans', sans-serif;font-size:13px;font-weight:700">Increment 1</text><text x="126.0" y="131" text-anchor="middle" fill="#C9D6EA" style="font-family:Helvetica, Arial, 'DejaVu Sans', sans-serif;font-size:9.5px;font-weight:normal">Week 1 · Foundation</text><rect x="62" y="150" width="128" height="33" rx="3" fill="#E7EDF6" stroke="#1F3864" stroke-width="1.3"/><text x="79" y="171.0" text-anchor="middle" fill="#1F3864" style="font-family:Helvetica, Arial, 'DejaVu Sans', sans-serif;font-size:12.5px;font-weight:700">R</text><line x1="94" y1="154" x2="94" y2="179" stroke="#C6D4E8" stroke-width="1"/><text x="101" y="170.5" text-anchor="start" fill="#1F3864" style="font-family:Helvetica, Arial, 'DejaVu Sans', sans-serif;font-size:10.5px;font-weight:normal">Requirements</text><line x1="126.0" y1="183" x2="126.0" y2="189" stroke="#1F3864" stroke-width="1.2" marker-end="url(#arrow)"/><rect x="62" y="189" width="128" height="33" rx="3" fill="#E7EDF6" stroke="#1F3864" stroke-width="1.3"/><text x="79" y="210.0" text-anchor="middle" fill="#1F3864" style="font-family:Helvetica, Arial, 'DejaVu Sans', sans-serif;font-size:12.5px;font-weight:700">D</text><line x1="94" y1="193" x2="94" y2="218" stroke="#C6D4E8" stroke-width="1"/><text x="101" y="209.5" text-anchor="start" fill="#1F3864" style="font-family:Helvetica, Arial, 'DejaVu Sans', sans-serif;font-size:10.5px;font-weight:normal">Design</text><line x1="126.0" y1="222" x2="126.0" y2="228" stroke="#1F3864" stroke-width="1.2" marker-end="url(#arrow)"/><rect x="62" y="228" width="128" height="33" rx="3" fill="#E7EDF6" stroke="#1F3864" stroke-width="1.3"/><text x="79" y="249.0" text-anchor="middle" fill="#1F3864" style="font-family:Helvetica, Arial, 'DejaVu Sans', sans-serif;font-size:12.5px;font-weight:700">B</text><line x1="94" y1="232" x2="94" y2="257" stroke="#C6D4E8" stroke-width="1"/><text x="101" y="248.5" text-anchor="start" fill="#1F3864" style="font-family:Helvetica, Arial, 'DejaVu Sans', sans-serif;font-size:10.5px;font-weight:normal">Build</text><line x1="126.0" y1="261" x2="126.0" y2="267" stroke="#1F3864" stroke-width="1.2" marker-end="url(#arrow)"/><rect x="62" y="267" width="128" height="33" rx="3" fill="#E7EDF6" stroke="#1F3864" stroke-width="1.3"/><text x="79" y="288.0" text-anchor="middle" fill="#1F3864" style="font-family:Helvetica, Arial, 'DejaVu Sans', sans-serif;font-size:12.5px;font-weight:700">T</text><line x1="94" y1="271" x2="94" y2="296" stroke="#C6D4E8" stroke-width="1"/><text x="101" y="287.5" text-anchor="start" fill="#1F3864" style="font-family:Helvetica, Arial, 'DejaVu Sans', sans-serif;font-size:10.5px;font-weight:normal">Test</text><path d="M184 283.5 C203 283.5, 203 166.5, 184 166.5" fill="none" stroke="#9A5B06" stroke-width="1.3" stroke-dasharray="4 3" marker-end="url(#arrow)"/><rect x="208" y="96" width="128" height="44" rx="4" fill="#1F3864" stroke="#1F3864" stroke-width="1.6"/><text x="272.0" y="116" text-anchor="middle" fill="#FFFFFF" style="font-family:Helvetica, Arial, 'DejaVu Sans', sans-serif;font-size:13px;font-weight:700">Increment 2</text><text x="272.0" y="131" text-anchor="middle" fill="#C9D6EA" style="font-family:Helvetica, Arial, 'DejaVu Sans', sans-serif;font-size:9.5px;font-weight:normal">Week 2 · Identity</text><rect x="208" y="150" width="128" height="33" rx="3" fill="#E7EDF6" stroke="#1F3864" stroke-width="1.3"/><text x="225" y="171.0" text-anchor="middle" fill="#1F3864" style="font-family:Helvetica, Arial, 'DejaVu Sans', sans-serif;font-size:12.5px;font-weight:700">R</text><line x1="240" y1="154" x2="240" y2="179" stroke="#C6D4E8" stroke-width="1"/><text x="247" y="170.5" text-anchor="start" fill="#1F3864" style="font-family:Helvetica, Arial, 'DejaVu Sans', sans-serif;font-size:10.5px;font-weight:normal">Requirements</text><line x1="272.0" y1="183" x2="272.0" y2="189" stroke="#1F3864" stroke-width="1.2" marker-end="url(#arrow)"/><rect x="208" y="189" width="128" height="33" rx="3" fill="#E7EDF6" stroke="#1F3864" stroke-width="1.3"/><text x="225" y="210.0" text-anchor="middle" fill="#1F3864" style="font-family:Helvetica, Arial, 'DejaVu Sans', sans-serif;font-size:12.5px;font-weight:700">D</text><line x1="240" y1="193" x2="240" y2="218" stroke="#C6D4E8" stroke-width="1"/><text x="247" y="209.5" text-anchor="start" fill="#1F3864" style="font-family:Helvetica, Arial, 'DejaVu Sans', sans-serif;font-size:10.5px;font-weight:normal">Design</text><line x1="272.0" y1="222" x2="272.0" y2="228" stroke="#1F3864" stroke-width="1.2" marker-end="url(#arrow)"/><rect x="208" y="228" width="128" height="33" rx="3" fill="#E7EDF6" stroke="#1F3864" stroke-width="1.3"/><text x="225" y="249.0" text-anchor="middle" fill="#1F3864" style="font-family:Helvetica, Arial, 'DejaVu Sans', sans-serif;font-size:12.5px;font-weight:700">B</text><line x1="240" y1="232" x2="240" y2="257" stroke="#C6D4E8" stroke-width="1"/><text x="247" y="248.5" text-anchor="start" fill="#1F3864" style="font-family:Helvetica, Arial, 'DejaVu Sans', sans-serif;font-size:10.5px;font-weight:normal">Build</text><line x1="272.0" y1="261" x2="272.0" y2="267" stroke="#1F3864" stroke-width="1.2" marker-end="url(#arrow)"/><rect x="208" y="267" width="128" height="33" rx="3" fill="#E7EDF6" stroke="#1F3864" stroke-width="1.3"/><text x="225" y="288.0" text-anchor="middle" fill="#1F3864" style="font-family:Helvetica, Arial, 'DejaVu Sans', sans-serif;font-size:12.5px;font-weight:700">T</text><line x1="240" y1="271" x2="240" y2="296" stroke="#C6D4E8" stroke-width="1"/><text x="247" y="287.5" text-anchor="start" fill="#1F3864" style="font-family:Helvetica, Arial, 'DejaVu Sans', sans-serif;font-size:10.5px;font-weight:normal">Test</text><path d="M330 283.5 C349 283.5, 349 166.5, 330 166.5" fill="none" stroke="#9A5B06" stroke-width="1.3" stroke-dasharray="4 3" marker-end="url(#arrow)"/><rect x="354" y="96" width="128" height="44" rx="4" fill="#1F3864" stroke="#1F3864" stroke-width="1.6"/><text x="418.0" y="116" text-anchor="middle" fill="#FFFFFF" style="font-family:Helvetica, Arial, 'DejaVu Sans', sans-serif;font-size:13px;font-weight:700">Increment 3</text><text x="418.0" y="131" text-anchor="middle" fill="#C9D6EA" style="font-family:Helvetica, Arial, 'DejaVu Sans', sans-serif;font-size:9.5px;font-weight:normal">Week 3 · Discovery</text><rect x="354" y="150" width="128" height="33" rx="3" fill="#E7EDF6" stroke="#1F3864" stroke-width="1.3"/><text x="371" y="171.0" text-anchor="middle" fill="#1F3864" style="font-family:Helvetica, Arial, 'DejaVu Sans', sans-serif;font-size:12.5px;font-weight:700">R</text><line x1="386" y1="154" x2="386" y2="179" stroke="#C6D4E8" stroke-width="1"/><text x="393" y="170.5" text-anchor="start" fill="#1F3864" style="font-family:Helvetica, Arial, 'DejaVu Sans', sans-serif;font-size:10.5px;font-weight:normal">Requirements</text><line x1="418.0" y1="183" x2="418.0" y2="189" stroke="#1F3864" stroke-width="1.2" marker-end="url(#arrow)"/><rect x="354" y="189" width="128" height="33" rx="3" fill="#E7EDF6" stroke="#1F3864" stroke-width="1.3"/><text x="371" y="210.0" text-anchor="middle" fill="#1F3864" style="font-family:Helvetica, Arial, 'DejaVu Sans', sans-serif;font-size:12.5px;font-weight:700">D</text><line x1="386" y1="193" x2="386" y2="218" stroke="#C6D4E8" stroke-width="1"/><text x="393" y="209.5" text-anchor="start" fill="#1F3864" style="font-family:Helvetica, Arial, 'DejaVu Sans', sans-serif;font-size:10.5px;font-weight:normal">Design</text><line x1="418.0" y1="222" x2="418.0" y2="228" stroke="#1F3864" stroke-width="1.2" marker-end="url(#arrow)"/><rect x="354" y="228" width="128" height="33" rx="3" fill="#E7EDF6" stroke="#1F3864" stroke-width="1.3"/><text x="371" y="249.0" text-anchor="middle" fill="#1F3864" style="font-family:Helvetica, Arial, 'DejaVu Sans', sans-serif;font-size:12.5px;font-weight:700">B</text><line x1="386" y1="232" x2="386" y2="257" stroke="#C6D4E8" stroke-width="1"/><text x="393" y="248.5" text-anchor="start" fill="#1F3864" style="font-family:Helvetica, Arial, 'DejaVu Sans', sans-serif;font-size:10.5px;font-weight:normal">Build</text><line x1="418.0" y1="261" x2="418.0" y2="267" stroke="#1F3864" stroke-width="1.2" marker-end="url(#arrow)"/><rect x="354" y="267" width="128" height="33" rx="3" fill="#E7EDF6" stroke="#1F3864" stroke-width="1.3"/><text x="371" y="288.0" text-anchor="middle" fill="#1F3864" style="font-family:Helvetica, Arial, 'DejaVu Sans', sans-serif;font-size:12.5px;font-weight:700">T</text><line x1="386" y1="271" x2="386" y2="296" stroke="#C6D4E8" stroke-width="1"/><text x="393" y="287.5" text-anchor="start" fill="#1F3864" style="font-family:Helvetica, Arial, 'DejaVu Sans', sans-serif;font-size:10.5px;font-weight:normal">Test</text><path d="M476 283.5 C495 283.5, 495 166.5, 476 166.5" fill="none" stroke="#9A5B06" stroke-width="1.3" stroke-dasharray="4 3" marker-end="url(#arrow)"/><rect x="500" y="96" width="128" height="44" rx="4" fill="#1F3864" stroke="#1F3864" stroke-width="1.6"/><text x="564.0" y="116" text-anchor="middle" fill="#FFFFFF" style="font-family:Helvetica, Arial, 'DejaVu Sans', sans-serif;font-size:13px;font-weight:700">Increment 4</text><text x="564.0" y="131" text-anchor="middle" fill="#C9D6EA" style="font-family:Helvetica, Arial, 'DejaVu Sans', sans-serif;font-size:9.5px;font-weight:normal">Week 4 · Escrow</text><rect x="500" y="150" width="128" height="33" rx="3" fill="#E7EDF6" stroke="#1F3864" stroke-width="1.3"/><text x="517" y="171.0" text-anchor="middle" fill="#1F3864" style="font-family:Helvetica, Arial, 'DejaVu Sans', sans-serif;font-size:12.5px;font-weight:700">R</text><line x1="532" y1="154" x2="532" y2="179" stroke="#C6D4E8" stroke-width="1"/><text x="539" y="170.5" text-anchor="start" fill="#1F3864" style="font-family:Helvetica, Arial, 'DejaVu Sans', sans-serif;font-size:10.5px;font-weight:normal">Requirements</text><line x1="564.0" y1="183" x2="564.0" y2="189" stroke="#1F3864" stroke-width="1.2" marker-end="url(#arrow)"/><rect x="500" y="189" width="128" height="33" rx="3" fill="#E7EDF6" stroke="#1F3864" stroke-width="1.3"/><text x="517" y="210.0" text-anchor="middle" fill="#1F3864" style="font-family:Helvetica, Arial, 'DejaVu Sans', sans-serif;font-size:12.5px;font-weight:700">D</text><line x1="532" y1="193" x2="532" y2="218" stroke="#C6D4E8" stroke-width="1"/><text x="539" y="209.5" text-anchor="start" fill="#1F3864" style="font-family:Helvetica, Arial, 'DejaVu Sans', sans-serif;font-size:10.5px;font-weight:normal">Design</text><line x1="564.0" y1="222" x2="564.0" y2="228" stroke="#1F3864" stroke-width="1.2" marker-end="url(#arrow)"/><rect x="500" y="228" width="128" height="33" rx="3" fill="#E7EDF6" stroke="#1F3864" stroke-width="1.3"/><text x="517" y="249.0" text-anchor="middle" fill="#1F3864" style="font-family:Helvetica, Arial, 'DejaVu Sans', sans-serif;font-size:12.5px;font-weight:700">B</text><line x1="532" y1="232" x2="532" y2="257" stroke="#C6D4E8" stroke-width="1"/><text x="539" y="248.5" text-anchor="start" fill="#1F3864" style="font-family:Helvetica, Arial, 'DejaVu Sans', sans-serif;font-size:10.5px;font-weight:normal">Build</text><line x1="564.0" y1="261" x2="564.0" y2="267" stroke="#1F3864" stroke-width="1.2" marker-end="url(#arrow)"/><rect x="500" y="267" width="128" height="33" rx="3" fill="#E7EDF6" stroke="#1F3864" stroke-width="1.3"/><text x="517" y="288.0" text-anchor="middle" fill="#1F3864" style="font-family:Helvetica, Arial, 'DejaVu Sans', sans-serif;font-size:12.5px;font-weight:700">T</text><line x1="532" y1="271" x2="532" y2="296" stroke="#C6D4E8" stroke-width="1"/><text x="539" y="287.5" text-anchor="start" fill="#1F3864" style="font-family:Helvetica, Arial, 'DejaVu Sans', sans-serif;font-size:10.5px;font-weight:normal">Test</text><path d="M622 283.5 C641 283.5, 641 166.5, 622 166.5" fill="none" stroke="#9A5B06" stroke-width="1.3" stroke-dasharray="4 3" marker-end="url(#arrow)"/><rect x="646" y="96" width="128" height="44" rx="4" fill="#1F3864" stroke="#1F3864" stroke-width="1.6"/><text x="710.0" y="116" text-anchor="middle" fill="#FFFFFF" style="font-family:Helvetica, Arial, 'DejaVu Sans', sans-serif;font-size:13px;font-weight:700">Increment 5</text><text x="710.0" y="131" text-anchor="middle" fill="#C9D6EA" style="font-family:Helvetica, Arial, 'DejaVu Sans', sans-serif;font-size:9.5px;font-weight:normal">Week 5 · Trust</text><rect x="646" y="150" width="128" height="33" rx="3" fill="#E7EDF6" stroke="#1F3864" stroke-width="1.3"/><text x="663" y="171.0" text-anchor="middle" fill="#1F3864" style="font-family:Helvetica, Arial, 'DejaVu Sans', sans-serif;font-size:12.5px;font-weight:700">R</text><line x1="678" y1="154" x2="678" y2="179" stroke="#C6D4E8" stroke-width="1"/><text x="685" y="170.5" text-anchor="start" fill="#1F3864" style="font-family:Helvetica, Arial, 'DejaVu Sans', sans-serif;font-size:10.5px;font-weight:normal">Requirements</text><line x1="710.0" y1="183" x2="710.0" y2="189" stroke="#1F3864" stroke-width="1.2" marker-end="url(#arrow)"/><rect x="646" y="189" width="128" height="33" rx="3" fill="#E7EDF6" stroke="#1F3864" stroke-width="1.3"/><text x="663" y="210.0" text-anchor="middle" fill="#1F3864" style="font-family:Helvetica, Arial, 'DejaVu Sans', sans-serif;font-size:12.5px;font-weight:700">D</text><line x1="678" y1="193" x2="678" y2="218" stroke="#C6D4E8" stroke-width="1"/><text x="685" y="209.5" text-anchor="start" fill="#1F3864" style="font-family:Helvetica, Arial, 'DejaVu Sans', sans-serif;font-size:10.5px;font-weight:normal">Design</text><line x1="710.0" y1="222" x2="710.0" y2="228" stroke="#1F3864" stroke-width="1.2" marker-end="url(#arrow)"/><rect x="646" y="228" width="128" height="33" rx="3" fill="#E7EDF6" stroke="#1F3864" stroke-width="1.3"/><text x="663" y="249.0" text-anchor="middle" fill="#1F3864" style="font-family:Helvetica, Arial, 'DejaVu Sans', sans-serif;font-size:12.5px;font-weight:700">B</text><line x1="678" y1="232" x2="678" y2="257" stroke="#C6D4E8" stroke-width="1"/><text x="685" y="248.5" text-anchor="start" fill="#1F3864" style="font-family:Helvetica, Arial, 'DejaVu Sans', sans-serif;font-size:10.5px;font-weight:normal">Build</text><line x1="710.0" y1="261" x2="710.0" y2="267" stroke="#1F3864" stroke-width="1.2" marker-end="url(#arrow)"/><rect x="646" y="267" width="128" height="33" rx="3" fill="#E7EDF6" stroke="#1F3864" stroke-width="1.3"/><text x="663" y="288.0" text-anchor="middle" fill="#1F3864" style="font-family:Helvetica, Arial, 'DejaVu Sans', sans-serif;font-size:12.5px;font-weight:700">T</text><line x1="678" y1="271" x2="678" y2="296" stroke="#C6D4E8" stroke-width="1"/><text x="685" y="287.5" text-anchor="start" fill="#1F3864" style="font-family:Helvetica, Arial, 'DejaVu Sans', sans-serif;font-size:10.5px;font-weight:normal">Test</text><path d="M768 283.5 C787 283.5, 787 166.5, 768 166.5" fill="none" stroke="#9A5B06" stroke-width="1.3" stroke-dasharray="4 3" marker-end="url(#arrow)"/><rect x="792" y="96" width="128" height="44" rx="4" fill="#1F3864" stroke="#1F3864" stroke-width="1.6"/><text x="856.0" y="116" text-anchor="middle" fill="#FFFFFF" style="font-family:Helvetica, Arial, 'DejaVu Sans', sans-serif;font-size:13px;font-weight:700">Increment 6</text><text x="856.0" y="131" text-anchor="middle" fill="#C9D6EA" style="font-family:Helvetica, Arial, 'DejaVu Sans', sans-serif;font-size:9.5px;font-weight:normal">Week 6 · Release</text><rect x="792" y="150" width="128" height="33" rx="3" fill="#E7EDF6" stroke="#1F3864" stroke-width="1.3"/><text x="809" y="171.0" text-anchor="middle" fill="#1F3864" style="font-family:Helvetica, Arial, 'DejaVu Sans', sans-serif;font-size:12.5px;font-weight:700">R</text><line x1="824" y1="154" x2="824" y2="179" stroke="#C6D4E8" stroke-width="1"/><text x="831" y="170.5" text-anchor="start" fill="#1F3864" style="font-family:Helvetica, Arial, 'DejaVu Sans', sans-serif;font-size:10.5px;font-weight:normal">Requirements</text><line x1="856.0" y1="183" x2="856.0" y2="189" stroke="#1F3864" stroke-width="1.2" marker-end="url(#arrow)"/><rect x="792" y="189" width="128" height="33" rx="3" fill="#E7EDF6" stroke="#1F3864" stroke-width="1.3"/><text x="809" y="210.0" text-anchor="middle" fill="#1F3864" style="font-family:Helvetica, Arial, 'DejaVu Sans', sans-serif;font-size:12.5px;font-weight:700">D</text><line x1="824" y1="193" x2="824" y2="218" stroke="#C6D4E8" stroke-width="1"/><text x="831" y="209.5" text-anchor="start" fill="#1F3864" style="font-family:Helvetica, Arial, 'DejaVu Sans', sans-serif;font-size:10.5px;font-weight:normal">Design</text><line x1="856.0" y1="222" x2="856.0" y2="228" stroke="#1F3864" stroke-width="1.2" marker-end="url(#arrow)"/><rect x="792" y="228" width="128" height="33" rx="3" fill="#E7EDF6" stroke="#1F3864" stroke-width="1.3"/><text x="809" y="249.0" text-anchor="middle" fill="#1F3864" style="font-family:Helvetica, Arial, 'DejaVu Sans', sans-serif;font-size:12.5px;font-weight:700">B</text><line x1="824" y1="232" x2="824" y2="257" stroke="#C6D4E8" stroke-width="1"/><text x="831" y="248.5" text-anchor="start" fill="#1F3864" style="font-family:Helvetica, Arial, 'DejaVu Sans', sans-serif;font-size:10.5px;font-weight:normal">Build</text><line x1="856.0" y1="261" x2="856.0" y2="267" stroke="#1F3864" stroke-width="1.2" marker-end="url(#arrow)"/><rect x="792" y="267" width="128" height="33" rx="3" fill="#E7EDF6" stroke="#1F3864" stroke-width="1.3"/><text x="809" y="288.0" text-anchor="middle" fill="#1F3864" style="font-family:Helvetica, Arial, 'DejaVu Sans', sans-serif;font-size:12.5px;font-weight:700">T</text><line x1="824" y1="271" x2="824" y2="296" stroke="#C6D4E8" stroke-width="1"/><text x="831" y="287.5" text-anchor="start" fill="#1F3864" style="font-family:Helvetica, Arial, 'DejaVu Sans', sans-serif;font-size:10.5px;font-weight:normal">Test</text><path d="M914 283.5 C933 283.5, 933 166.5, 914 166.5" fill="none" stroke="#9A5B06" stroke-width="1.3" stroke-dasharray="4 3" marker-end="url(#arrow)"/><rect x="62" y="328" width="146" height="30" fill="#1B6B3A" opacity="0.080"/><text x="126.0" y="347" text-anchor="middle" fill="#1B6B3A" style="font-family:Helvetica, Arial, 'DejaVu Sans', sans-serif;font-size:10.5px;font-weight:700">+ accounts</text><rect x="208" y="328" width="146" height="30" fill="#1B6B3A" opacity="0.135"/><text x="272.0" y="347" text-anchor="middle" fill="#1B6B3A" style="font-family:Helvetica, Arial, 'DejaVu Sans', sans-serif;font-size:10.5px;font-weight:700">+ profiles</text><rect x="354" y="328" width="146" height="30" fill="#1B6B3A" opacity="0.190"/><text x="418.0" y="347" text-anchor="middle" fill="#1B6B3A" style="font-family:Helvetica, Arial, 'DejaVu Sans', sans-serif;font-size:10.5px;font-weight:700">+ discovery</text><rect x="500" y="328" width="146" height="30" fill="#1B6B3A" opacity="0.245"/><text x="564.0" y="347" text-anchor="middle" fill="#1B6B3A" style="font-family:Helvetica, Arial, 'DejaVu Sans', sans-serif;font-size:10.5px;font-weight:700">+ escrow</text><rect x="646" y="328" width="146" height="30" fill="#1B6B3A" opacity="0.300"/><text x="710.0" y="347" text-anchor="middle" fill="#1B6B3A" style="font-family:Helvetica, Arial, 'DejaVu Sans', sans-serif;font-size:10.5px;font-weight:700">+ reviews</text><rect x="792" y="328" width="128" height="30" fill="#1B6B3A" opacity="0.355"/><text x="856.0" y="347" text-anchor="middle" fill="#1B6B3A" style="font-family:Helvetica, Arial, 'DejaVu Sans', sans-serif;font-size:10.5px;font-weight:700">+ admin</text><rect x="62" y="328" width="858" height="30" rx="3" fill="none" stroke="#1B6B3A" stroke-width="1.8"/><text x="62" y="319" text-anchor="start" fill="#1B6B3A" style="font-family:Helvetica, Arial, 'DejaVu Sans', sans-serif;font-size:11px;font-weight:700">Cumulative working product — every increment leaves the platform demonstrable</text><line x1="44" y1="388" x2="920" y2="388" stroke="#16213E" stroke-width="1.6" marker-end="url(#arrow)"/><text x="44" y="407" text-anchor="start" fill="#5B6472" style="font-family:Helvetica, Arial, 'DejaVu Sans', sans-serif;font-size:10.5px;font-weight:normal">Week 1</text><text x="920" y="407" text-anchor="end" fill="#5B6472" style="font-family:Helvetica, Arial, 'DejaVu Sans', sans-serif;font-size:10.5px;font-weight:normal">Week 6</text><text x="470" y="407" text-anchor="middle" fill="#9A5B06" style="font-family:Helvetica, Arial, 'DejaVu Sans', sans-serif;font-size:10.5px;font-weight:normal;font-style:italic">Requirements are re-examined at every increment boundary</text><text x="44" y="434" text-anchor="start" fill="#16213E" style="font-family:Helvetica, Arial, 'DejaVu Sans', sans-serif;font-size:12px;font-weight:600">Figure 1.2 — The incremental / iterative model as applied to TalentHub</text></svg>